<svg height='100px' width='100px'  fill="#000000" xmlns:dc="http://purl.org/dc/elements/1.1/" xmlns:cc="http://creativecommons.org/ns#" xmlns:rdf="http://www.w3.org/1999/02/22-rdf-syntax-ns#" xmlns:svg="http://www.w3.org/2000/svg" xmlns="http://www.w3.org/2000/svg" xmlns:sodipodi="http://sodipodi.sourceforge.net/DTD/sodipodi-0.dtd" xmlns:inkscape="http://www.inkscape.org/namespaces/inkscape" version="1.1" x="0px" y="0px" viewBox="0 0 100 100"><g transform="translate(0,-952.36218)"><path style="text-indent:0;text-transform:none;direction:ltr;block-progression:tb;baseline-shift:baseline;color:#000000;enable-background:accumulate;" d="m 28.002157,958.36253 c -2.0519,-0.0175 -4.0895,0.82328 -5.5019,2.50088 -2.4994,2.98532 -2.107,7.49276 0.8753,10.00352 l 8.7219,7.34635 c 2.4546,2.06563 5.9441,2.15819 8.503,0.46891 l 0.5001,0.43766 c -1.2238,2.80752 -0.5442,6.2225 1.9069,8.28416 l 8.7531,7.34631 c 1.9772,1.6554 4.6182,2.0405 6.9087,1.2505 l 2.2821,2.7822 c -1.3666,1.81288 -1.8311,4.23758 -1.063,6.53368 l 3.6263,10.8163 c 0.8142,2.433 2.8387,4.158 5.1894,4.6891 l 0.1251,0.7503 c -2.2921,1.1822 -3.9077,3.5418 -3.9077,6.2835 l 0,11.4102 c 0,3.8966 3.231,7.0963 7.1275,7.0963 3.9028,0 7.0962,-3.2044 7.0962,-7.0963 l 0,-11.4102 c 0,-3.665 -2.8299,-6.7132 -6.4084,-7.065 l -0.0312,-0.2501 c 3.5551,-1.3212 5.4725,-5.2869 4.2515,-8.9094 l -3.5951,-10.8163 c -1.0053,-3.00468 -3.8851,-4.90268 -6.9086,-4.84558 -0.6978,0.013 -1.4012,0.1432 -2.0946,0.3751 -0.0554,0.019 -0.1016,0.043 -0.1562,0.062 l -2.2821,-2.75093 c 2.3137,-2.98345 1.8828,-7.33112 -1.0317,-9.78469 l -8.7218,-7.34634 c -1.306,-1.09345 -2.9067,-1.64517 -4.5016,-1.65683 -1.3938,-0.0102 -2.7783,0.40822 -3.9701,1.18792 l -0.5314,-0.43766 c 1.2198,-2.80844 0.5368,-6.21726 -1.907,-8.28417 l -8.7531,-7.31507 c -10e-4,-5e-4 10e-4,-0.0307 0,-0.0313 -1.305,-1.09791 -2.9064,-1.61198 -4.5016,-1.62558 z m -0.0312,3.97015 c 0.6943,0.007 1.3929,0.23366 1.9695,0.719 l 8.7218,7.34633 c 0.7233,0.61184 1.088,1.46634 1.0941,2.34458 l -3.1574,-2.65719 a 2.0009045,2.0009045 0 0 0 -1.3129,-0.50017 2.0009045,2.0009045 0 0 0 -1.2818,3.56375 l 3.1888,2.68845 c -0.8645,0.14555 -1.8044,-0.075 -2.5322,-0.68774 l -8.7218,-7.34634 c -1.3167,-1.10943 -1.4726,-3.02954 -0.3751,-4.34528 0.001,-10e-4 -10e-4,-0.0302 0,-0.0313 0.6243,-0.73908 1.5162,-1.10291 2.407,-1.09413 z m 19.6631,16.53707 c 0.6937,0.006 1.3945,0.2392 1.9695,0.719 l 8.7219,7.34635 c 1.0333,0.8699 1.3432,2.24641 0.9065,3.43871 l -0.3751,-0.43767 a 2.0009045,2.0009045 0 0 0 -1.5944,-0.719 2.0009045,2.0009045 0 0 0 -1.6568,3.06358 c -0.4508,-0.10877 -0.9015,-0.27649 -1.2816,-0.59396 l -8.7219,-7.34634 c -0.7189,-0.60488 -1.0884,-1.49774 -1.0942,-2.37583 l 2.4072,2.03196 a 2.0009045,2.0009045 0 1 0 2.5634,-3.06358 l -2.3759,-2.0007 c 0.1788,-0.0299 0.3503,-0.0641 0.5314,-0.0625 z m 19.5695,21.16375 c 1.064,0.2059 1.9764,0.9642 2.3445,2.0633 l 3.6263,10.7849 a 2.0009045,2.0009045 0 0 0 0,0.031 c 0.4424,1.3074 -0.0414,2.6929 -1.0941,3.47 l -0.2814,-1.8443 a 2.0009045,2.0009045 0 0 0 -1.9069,-1.7506 2.0009045,2.0009045 0 0 0 -2.032,2.3445 l 0.1251,0.8753 c -0.2954,-0.3154 -0.5419,-0.6893 -0.6877,-1.1254 l -3.6263,-10.8163 c -0.2231,-0.6667 -0.1779,-1.3501 0.0313,-1.9694 l 1.7818,2.157 a 2.0093174,2.0093174 0 1 0 3.0949,-2.5634 l -1.3755,-1.6569 z m 6.1896,25.0714 c 1.0248,0.5037 1.7506,1.5232 1.7506,2.751 l 0,11.4102 c 0,1.7102 -1.3755,3.0949 -3.0948,3.0949 -1.7053,0 -3.1261,-1.3895 -3.1261,-3.0949 l 0,-11.4102 c 0,-0.6601 0.2134,-1.2492 0.5627,-1.7508 l 0.3126,2.0633 a 2.0071454,2.0071454 0 1 0 3.9701,-0.594 l -0.3751,-2.4695 z" fill="#000000" fill-opacity="1" fill-rule="evenodd" stroke="none" marker="none" visibility="visible" display="inline" overflow="visible"></path></g></svg>