<svg height='100px' width='100px'  fill="#000000" xmlns:x="http://ns.adobe.com/Extensibility/1.0/" xmlns:i="http://ns.adobe.com/AdobeIllustrator/10.0/" xmlns:graph="http://ns.adobe.com/Graphs/1.0/" xmlns="http://www.w3.org/2000/svg" xmlns:xlink="http://www.w3.org/1999/xlink" version="1.1" x="0px" y="0px" viewBox="0 0 100 100" style="enable-background:new 0 0 100 100;" xml:space="preserve"><g><g i:extraneous="self"><g><path d="M57.2,18.2c2.6-0.2,5.1-1.1,7.2-2.6l0.7-0.4c0.3-0.2,0.6-0.6,0.6-1c0-0.4-0.1-0.8-0.4-1.1l-3.6-3.3l1.1-5.5     c0.1-0.5-0.1-1.1-0.6-1.4c-0.5-0.3-1.1-0.3-1.6,0l-0.7,0.5c-1.7,1.2-3.7,1.9-5.8,2.1c-2,0.2-4,0.7-5.8,1.7L52,19.9     C53.6,18.9,55.4,18.3,57.2,18.2z"></path><path d="M23.1,42.3c0.8,0.5,3.4,1.9,6.8,2.4c0.1,2.8,0.5,14.9,0.5,15.2c0.2,3.1,0.4,8.3,0.4,10c0,1.2-1.6,7.3-3,12.2l5.5,0.7     c0,0,0.1,0,0.1,0c0.1,0,0.2,0,0.3-0.1c1.1-3.8,3-10.8,3-12.9c0-1.4-0.2-4.7-0.3-7.7c0.2,0.1,0.3,0.2,0.4,0.3     c0.6,0.4,1.6,0.9,3.4,1.7c1.1,0.5,3.3,1.4,4.3,2c0.2,1.6,0,5.8-0.3,9.4l5.9,0c1-10.9-0.2-12.4-0.8-13.1c-1.1-1.3-3.3-2.3-6.8-3.8     c-0.3-0.2-0.8-0.3-1.1-0.5l0.3-13.5c3.4-0.5,5.9-1.9,6.7-2.4c1.2-0.8,2.7-2.3,4-3.9l0.8,2.8c0.2,0.6,0.7,1,1.3,1     c0.1,0,0.3,0,0.4-0.1c0.7-0.2,1.2-1,1-1.7l-1.4-4.7c0.5-0.7,0.9-1.3,1.1-1.6c0.8-1.1,0.5-2.7-0.7-3.5c-0.6-0.4-1.4-0.5-2-0.4     L45.9,6.2c-0.2-0.7-1-1.2-1.7-1c-0.7,0.2-1.2,1-1,1.7l7.3,25.5c-1.6,2.2-3.8,4.9-4.9,5.6c-1.4,0.9-4,1.9-6.6,1.9h-6.8     c-2.6,0-5.1-1-6.6-1.9c-1.3-0.8-4.1-4.4-5.7-6.7c-0.8-1.1-2.4-1.4-3.5-0.7c-1.1,0.8-1.4,2.4-0.7,3.5     C16.6,35.2,20.3,40.7,23.1,42.3z"></path><circle cx="35.7" cy="32.3" r="5.9"></circle><path d="M83.7,92.2L74.2,83c-0.1-0.2-0.3-0.3-0.4-0.5L68,73.8c-1.2-1.8-3.5-2.3-5.3-1.2l-8.4,5.2c0,0,0,0,0,0l-11.5,0.1     c-0.8,0-1.7,0.4-2.2,1l-5.1,5.3c-0.7,0.7-1.7,1.1-2.7,0.9L26,84.1c-1.3-0.2-2.5,0.5-3.1,1.6L19,92.9c-1.1,2.1,0.4,4.6,2.7,4.6     h59.7c1.2,0,2.3-0.6,2.9-1.6C84.9,94.6,84.6,93.1,83.7,92.2z"></path></g></g></g></svg>