<svg height='100px' width='100px'  fill="#000000" xmlns="http://www.w3.org/2000/svg" viewBox="0 0 68 62" x="0px" y="0px"><path d="M430,1746 L430,1742 C430,1740.89543 430.895431,1740 432,1740 C433.104569,1740 434,1740.89543 434,1742 L434,1746 L448,1746 L448,1742 C448,1740.89543 448.895431,1740 450,1740 C451.104569,1740 452,1740.89543 452,1742 L452,1746 L466,1746 L466,1742 C466,1740.89543 466.895431,1740 468,1740 C469.104569,1740 470,1740.89543 470,1742 L470,1746 L476.0078,1746 C480.425461,1746 484,1749.57716 484,1754.00333 L484,1793.99468 C484,1798.41315 480.418522,1802 476.0078,1802 L423.9922,1802 C419.573659,1802 416,1798.42356 416,1793.99468 L416,1754.00333 C416,1749.5858 419.581627,1746 423.9922,1746 L430,1746 Z M430,1750 L423.9922,1750 C421.79181,1750 420,1751.7939 420,1754.00333 L420,1762 L480,1762 L480,1754.00333 C480,1751.78565 478.215664,1750 476.0078,1750 L470,1750 L470,1754 C470,1755.10457 469.104569,1756 468,1756 C466.895431,1756 466,1755.10457 466,1754 L466,1750 L452,1750 L452,1754 C452,1755.10457 451.104569,1756 450,1756 C448.895431,1756 448,1755.10457 448,1754 L448,1750 L434,1750 L434,1754 C434,1755.10457 433.104569,1756 432,1756 C430.895431,1756 430,1755.10457 430,1754 L430,1750 Z M480,1766 L420,1766 L420,1793.99468 C420,1796.21511 421.783496,1798 423.9922,1798 L476.0078,1798 C478.208041,1798 480,1796.20536 480,1793.99468 L480,1766 Z M454.949747,1785.94975 C455.730796,1785.1687 456.997126,1785.1687 457.778175,1785.94975 C458.559223,1786.7308 458.559223,1787.99713 457.778175,1788.77817 C453.482407,1793.07394 446.517593,1793.07394 442.221825,1788.77817 C441.440777,1787.99713 441.440777,1786.7308 442.221825,1785.94975 C443.002874,1785.1687 444.269204,1785.1687 445.050253,1785.94975 C447.783923,1788.68342 452.216077,1788.68342 454.949747,1785.94975 Z M442,1779 C440.343146,1779 439,1777.65685 439,1776 C439,1774.34315 440.343146,1773 442,1773 C443.656854,1773 445,1774.34315 445,1776 C445,1777.65685 443.656854,1779 442,1779 Z M458,1779 C456.343146,1779 455,1777.65685 455,1776 C455,1774.34315 456.343146,1773 458,1773 C459.656854,1773 461,1774.34315 461,1776 C461,1777.65685 459.656854,1779 458,1779 Z" transform="translate(-416 -1740)"></path></svg>